<?xml version="1.0"?>
<svg xmlns="http://www.w3.org/2000/svg" xmlns:xlink="http://www.w3.org/1999/xlink" xmlns:svgjs="http://svgjs.com/svgjs" version="1.1" width="512" height="512" x="0" y="0" viewBox="0 0 132 132" style="enable-background:new 0 0 512 512" xml:space="preserve" class=""><g transform="matrix(-1,2.4492935982947064e-16,2.4492935982947064e-16,1,132.00000381469727,-2.842170943040401e-14)"><g xmlns="http://www.w3.org/2000/svg"><g><g fill="#e4e8f4"><path d="m114.1845 83.3117-1.3562-.7881-.1177-35.8502c.0015-.2076-.1335-.4155-.4066-.5742l-17.5805-10.2166c-.5423-.3152-1.4216-.3188-1.9675-.0037l-7.8899 4.5552v-5.4745c0-.1787-.0957-.3438-.25-.4331-.1543-.0889-.3457-.0889-.5 0l-22.018 12.7198v-6.4122l8.3986-4.8486c5.6218-3.2484 10.1824-11.1411 10.1638-17.5912-.0101-3.34-1.2621-5.6401-3.2524-6.6321.0943.0469.1938.0847.2847.1376l-6.4214-3.7052c-1.2999-.7554-2.9532-.9091-4.8065-.3754l-4.1761-2.4095c-1.1223-.6522-2.5271-.8028-4.0857-.4333l-4.362-2.5168c-1.7484-1.0161-4.165-.836-6.8071.6895-4.1185 2.3777-7.7882 7.6678-9.0359 12.8922-.5867.2039-1.1731.4749-1.7741.8218-4.4555 2.5724-8.3583 8.52-9.2676 14.0213l6.4214 3.7051c.9093-5.5013 4.8121-11.4489 9.2676-14.0213.2129-.1229.4224-.2249.6323-.3292-.2092.1052-.4182.2078-.6293.3332-4.4583 2.5689-8.3582 8.5164-9.2703 14.0171-.155.1476-.3042.3041-.4554.4576.1511-.1535.3002-.3099.455-.4575l-6.4214-3.7052c-4.1287 3.9357-6.9447 10.0318-6.9304 15.1011.0091 3.217 1.1476 5.4841 2.9794 6.5486l6.4214 3.7051c-.4351-.2528-.8277-.5784-1.1787-.9634 1.8374 2.0131 4.9006 2.269 8.3597.2742l14.2958-8.2532v6.1213l-23.03 13.3045c-.1548.0894-.25.2544-.25.4331v6.4707l-9.4977 5.4835c-.2737.158-.4088.3649-.4076.5715 0-.0003-.0003-.0007-.0003-.001l.1176 35.8343-1.4713.8494c-.4468.2583-.7031.6465-.7036 1.0645-.0005.4189.2554.8081.7017 1.0674l19.5342 11.3516c.3779.2197.8633.3296 1.3486.3296.4814 0 .9629-.1079 1.3384-.3247l19.6685-11.3555c.4463-.2578.7026-.6455.7036-1.0635.0005-.4194-.2554-.8086-.7021-1.0679l-2.3552-1.3687-.0208-6.3165 7.9849 4.6402c.3779.2202.8638.3301 1.3496.3301.4814 0 .9624-.1084 1.3379-.3247l19.668-11.356c.4463-.2578.7031-.6455.7031-1.0635.001-.4194-.2549-.8086-.7021-1.0679l-1.8555-1.0783-.0208-6.3167 7.4856 4.3501c.3779.2202.8633.3301 1.3496.3301.4814 0 .9629-.1079 1.3379-.3247l19.668-11.3555c.4463-.2578.7031-.6455.7031-1.0635.0008-.4188-.255-.8084-.7023-1.0682zm-86.3101-28.5093c.1048.1435.2056.2923.3205.4218-.1148-.1296-.2158-.2781-.3205-.4218zm-.2673-.3898c.0267.0435.048.0939.0756.1363-.0276-.0425-.0489-.0927-.0756-.1363zm65.0275 3.0428c.2935.1706.684.2418 1.0686.2287-.3851.0148-.7767-.0557-1.0735-.2284l-9.9091-5.7617zm-28.4643 16.5053c.2887.1678.6716.2407 1.0502.2308-.3791.0115-.7631-.0607-1.055-.2305l-9.9495-5.785zm-27.4099 16.7356c-.3804.0122-.7662-.0596-1.0591-.23l-9.9994-5.8141 10.0043 5.8138c.2897.1684.6743.2409 1.0542.2303zm75.8798-43.8128c-.0141.0296-.0111.0615-.0314.0901.0204-.0288.0171-.0603.0314-.0901zm-51.2921 1.6621c.0776.0444.1636.0669.25.0669s.1729-.0225.25-.0669l22.0181-12.7197v5.1857l-8.812 5.0875c-.2737.158-.4088.3648-.4076.5715 0-.0004-.0003-.0006-.0003-.001l.0349 10.6125-8.4219-4.8942c-.5422-.3151-1.4216-.3188-1.9675-.0037l-7.2909 4.2094v-12.8169l4.0972-2.3654v6.7011c0 .1788.0952.3438.25.4332zm-5.0869-42.8284c-.0473.0109-.095.0229-.1426.0347.0448-.0111.0912-.0284.1358-.0387zm-1.8976.6646c.0854-.0402.1691-.0735.2538-.1108-.0847.0372-.1685.0707-.2538.1108zm.8794-.3634c.1022-.037.2033-.0712.3044-.1039-.101.0326-.2024.067-.3044.1039zm8.2096 3.024c.0796-.0309.1574-.0553.2365-.0836-.079.0282-.157.0527-.2365.0836zm.7838-.2632c.0989-.0286.1962-.0528.2939-.0772-.0976.0243-.1952.0487-.2939.0772zm12.8627 2.8335c-.1269-.0525-.2603-.0927-.3925-.135.1323.0424.2655.0825.3925.135zm-.7338-.2405c-.1343-.033-.2748-.0527-.4139-.0756.1391.0229.2796.0426.4139.0756zm-.7849-.1337c-.1411-.0138-.2883-.0131-.4337-.0168.1455.0037.2926.003.4337.0168zm-.8318-.0246c-.1477.0054-.3012.0264-.4526.0419.1515-.0155.3048-.0365.4526-.0419zm-3.408.9058c.2266-.1061.4537-.2144.6757-.3013-.222.0869-.4492.1952-.6757.3013zm1.1038-.446c.1732-.059.348-.1249.5178-.1722-.1698.0473-.3447.1131-.5178.1722zm.9535-.2702c.1593-.0356.3205-.0775.4764-.1027-.1559.0251-.3171.0671-.4764.1027zm-21.0971-3.7902c-1.8204 1.3183-3.5107 3.1712-4.8876 5.2917 1.3759-2.1215 3.0657-3.9748 4.8876-5.2917zm-23.6773 59.8307 23.0303-13.3042c.0186-.0107.0295-.0281.0461-.0407.028-.0212.0545-.0419.0775-.0684.0211-.0243.0366-.0503.0524-.0778.0161-.0276.0309-.0544.0415-.0851.0115-.0332.0162-.0665.0204-.1014.0026-.0205.012-.0385.012-.0598v-6.9874l4.0972-2.3654v12.817l-9.4109 5.4336c-.2737.158-.4088.3648-.4075.5715 0-.0004-.0003-.0006-.0003-.001l.0348 10.6125-8.4218-4.8942c-.5423-.3151-1.4216-.3188-1.9675-.0037l-7.2041 4.1593v-5.6048zm29.332 49.9878c-.0005.0264-.0498.1104-.2036.1987l-19.6685 11.3555c-.4473.2593-1.2354.2583-1.6846-.0029l-19.5342-11.3516c-.1543-.0898-.2041-.1748-.2041-.2017s.0498-.1108.2036-.1997l1.2588-.7267c.0433.0354.0681.076.1218.1078l17.5757 10.2094c.5468.3181 1.4216.3181 1.9683.0099l17.705-10.2194c.2244-.133.3359-.3025.3738-.476l1.8832 1.0944c.1545.09.2048.175.2048.2023zm27.9653-16.5268c0 .0264-.0498.1104-.2031.1987l-19.668 11.356c-.4478.2593-1.2354.2573-1.6851-.0034l-8.4911-4.9344-.0069-2.0963 8.4181 4.8899c.5468.3181 1.4216.3181 1.9683.0099l17.705-10.2194c.1277-.0757.2217-.1638.2898-.2567l1.4688.8536c.1544.0898.2042.1747.2042.2021zm27.7627-16.3277-19.668 11.3555c-.4492.2593-1.2363.2573-1.6855-.0034l-7.9913-4.6441-.0078-2.3651 8.4182 4.8899c.5468.3181 1.4216.3181 1.9683.0099l17.705-10.2194c.0472-.028.0679-.0641.1071-.0949l1.1531.6702c.1543.0903.2041.1753.2041.2026 0 .0265-.0498.1105-.2032.1988z" fill="#e4e8f4" data-original="#e4e8f4" style="" class=""/><path d="m78.1025 114.7944-.0175 1.8399 6.7918 3.9213 6.753-3.9244.0175-1.84-6.7918-3.9213z" fill="#e4e8f4" data-original="#e4e8f4" style="" class=""/><path d="m15.7449 104.5389-6.7917-3.9212-6.753 3.9244-.0175 1.84 6.7918 3.9212 6.7529-3.9244z" fill="#e4e8f4" data-original="#e4e8f4" style="" class=""/><path d="m123.0256 63.6251-6.753 3.9243-.0175 1.8401 6.7917 3.9212 6.753-3.9244.0175-1.84z" fill="#e4e8f4" data-original="#e4e8f4" style="" class=""/></g><g><g><g><path d="m28.1235 76.257c-.2764 0-.5-.2236-.5-.5v-8.6016c0-.1787.0952-.3438.25-.4331l23.2803-13.4487c.2373-.1382.5444-.0566.6831.1831.1382.2388.0562.5449-.1831.6831l-23.0303 13.3042v8.313c0 .2764-.2237.5-.5.5z" fill="#4c7891" data-original="#4c7891" style="" class=""/></g><g><path d="m51.4037 54.2067c-.2764 0-.5-.2236-.5-.5v-16.6767c0-.2764.2236-.5.5-.5s.5.2236.5.5v16.6768c0 .2763-.2236.4999-.5.4999z" fill="#4c7891" data-original="#4c7891" style="" class=""/></g><g><path d="m56.5009 63.8444c-.2764 0-.5-.2236-.5-.5v-26.3144c0-.2764.2236-.5.5-.5s.5.2236.5.5v26.3145c0 .2763-.2236.4999-.5.4999z" fill="#4c7891" data-original="#4c7891" style="" class=""/></g><g><path d="m61.5981 48.6125c-.0864 0-.1724-.0225-.25-.0669-.1548-.0894-.25-.2544-.25-.4331v-27.7559c0-.2764.2236-.5.5-.5s.5.2236.5.5v26.8896l22.0181-12.7197c.1543-.0889.3457-.0889.5 0 .1543.0894.25.2544.25.4331v8.6021c0 .2764-.2236.5-.5.5s-.5-.2236-.5-.5v-7.7358l-22.0181 12.7197c-.0772.0444-.1636.0669-.25.0669z" fill="#4c7891" data-original="#4c7891" style="" class=""/></g><g><g><path d="m37.2451 130.177c-.4854 0-.9707-.1099-1.3486-.3296l-19.5342-11.3516c-.4463-.2593-.7021-.6484-.7017-1.0674.0005-.418.2568-.8062.7036-1.0645l19.668-11.3555c.7656-.4424 1.9214-.4399 2.687.0054l19.5342 11.3516c.4468.2593.7026.6484.7021 1.0679-.001.418-.2573.8057-.7036 1.0635l-19.6685 11.3555c-.3755.2167-.8569.3247-1.3383.3247zm-20.3809-12.9468c-.1538.0889-.2036.1729-.2036.1997s.0498.1118.2041.2017l19.5342 11.3516c.4492.2612 1.2373.2622 1.6846.0029l19.6685-11.3555c.1538-.0884.2031-.1724.2036-.1987 0-.0273-.0503-.1123-.2046-.2021l-19.5342-11.3516c-.4478-.2607-1.2363-.2632-1.6846-.0034z" fill="#afb5bf" data-original="#afb5bf" style=""/></g></g><g><g><path d="m65.2119 113.6506c-.4858 0-.9717-.1099-1.3496-.3301l-19.5337-11.3516c-.4468-.2593-.7026-.6484-.7021-1.0679.001-.418.2573-.8057.7036-1.0635l19.6685-11.3555c.7539-.4351 1.9351-.4331 2.687.0049l19.5332 11.3516c.4473.2593.7031.6484.7021 1.0679 0 .418-.2568.8057-.7031 1.0635l-19.668 11.356c-.3755.2163-.8565.3247-1.3379.3247zm.1245-24.4961c-.3076 0-.6147.0645-.8379.1938l-19.6685 11.3555c-.1538.0884-.2031.1724-.2036.1987 0 .0273.0503.1123.2046.2021l19.5337 11.3516c.4497.2607 1.2373.2627 1.6851.0034l19.668-11.356c.1533-.0884.2031-.1724.2031-.1987 0-.0273-.0498-.1123-.2041-.2021l-19.5338-11.3515c-.2251-.1309-.5361-.1968-.8466-.1968z" fill="#afb5bf" data-original="#afb5bf" style=""/></g></g><g><g><path d="m93.1777 97.1237c-.4863 0-.9717-.1099-1.3496-.3301l-19.5337-11.3515c-.4468-.2593-.7026-.6484-.7021-1.0679.001-.418.2573-.8057.7036-1.0635l19.6689-11.3555c.7529-.4346 1.9336-.4326 2.6865.0049l19.5332 11.3516c.4473.2598.7031.6494.7021 1.0684 0 .418-.2568.8057-.7031 1.0635l-19.6679 11.3554c-.375.2168-.8565.3247-1.3379.3247zm-20.3819-12.9468c-.1538.0884-.2031.1724-.2036.1987 0 .0273.0503.1123.2046.2021l19.5332 11.3517c.4492.2607 1.2363.2627 1.6855.0034l19.668-11.3555c.1533-.0884.2031-.1724.2031-.1987 0-.0273-.0498-.1123-.2041-.2026l-19.5331-11.3516c-.4482-.2603-1.2344-.2612-1.6846-.0029z" fill="#afb5bf" data-original="#afb5bf" style=""/></g></g><g><g><g><g><path d="m74.6463 46.6697.1193 36.3544c0 .2088.1392.4175.4076.5766l17.5758 10.2094c.5467.3181 1.4216.3181 1.9683.0099l17.705-10.2194c.2684-.1591.4076-.3678.4076-.5766l-.1193-36.3544c0 .2088-.1292.4076-.4076.5667l-17.705 10.2194c-.5467.3181-1.4216.3181-1.9683 0l-17.5758-10.2194c-.2684-.1591-.4076-.3578-.4076-.5666z" fill="#bac1ce" data-original="#bac1ce" style="" class=""/></g></g><g><g><path d="m75.0542 46.0991c-.5459.3152-.5424.8245-.0001 1.1397l17.5805 10.2167c.5423.3152 1.4217.3189 1.9675.0037l17.7018-10.2201c.5459-.3152.5424-.8245.0001-1.1397l-17.5805-10.2168c-.5423-.3151-1.4216-.3188-1.9675-.0037z" fill="#e4e8f4" data-original="#e4e8f4" style="" class=""/></g></g><g><g><path d="m109.7013 81.6871c.5316-.307.9509-1.0333.9509-1.6398l-.0824-29.1268c0-.0075 0-.0075 0-.015.4642-.1947.8161.0599.8236.614l.0824 29.1268c0 .6065-.4193 1.3328-.9509 1.6398l-12.8338 7.4128c-.5241.2995-.9435.0599-.9509-.5316.0449-.0224.0824-.0449.1273-.0674z" fill="#525566" data-original="#525566" style=""/></g><g><path d="m97.6013 58.3782 12.8412-7.4053c.0449-.0224.0824-.0449.1273-.0674v.015l.0824 29.1268c0 .6065-.4193 1.3328-.9509 1.6398l-12.8338 7.4128c-.0449.0224-.0824.0449-.1273.0674v-.0075l-.0824-29.1343c-.0074-.6065.4194-1.3403.9435-1.6473z" fill="#5b5e71" data-original="#5b5e71" style="" class=""/></g></g><g><g><g><path d="m97.9532 71.1583c-.2916.1684-.5299.5755-.5289.9161.001.3351.2407.4717.5324.3034l11.4304-6.5994c.2916-.1684.5299-.581.5289-.9161-.001-.3406-.2408-.4718-.5324-.3034z" fill="#e4e8f4" data-original="#e4e8f4" style="" class=""/></g></g><g><g><path d="m97.976 79.7178c-.2916.1684-.5299.5756-.5289.9161.0009.3351.2407.4717.5323.3034l11.4304-6.5993c.2916-.1684.5298-.581.5289-.9161-.001-.3406-.2408-.4718-.5323-.3034z" fill="#e4e8f4" data-original="#e4e8f4" style="" class=""/></g></g><g><g><path d="m97.9836 82.571c-.2916.1684-.5299.5756-.5289.9161.0009.3351.2407.4718.5324.3034l11.4304-6.5994c.2916-.1683.5298-.581.5289-.9161-.001-.3406-.2408-.4718-.5323-.3034z" fill="#e4e8f4" data-original="#e4e8f4" style="" class=""/></g></g><g><g><path d="m97.9912 85.4241c-.2916.1684-.5299.5756-.5289.9161.0009.3351.2407.4718.5324.3034l11.4304-6.5994c.2916-.1684.5298-.581.5289-.9161-.001-.3406-.2408-.4718-.5323-.3034z" fill="#e4e8f4" data-original="#e4e8f4" style="" class=""/></g></g><g><g><path d="m97.9684 76.8646c-.2916.1684-.5299.5756-.5289.9161.0009.3351.2407.4717.5323.3034l11.4304-6.5993c.2916-.1684.5298-.581.5289-.9161-.001-.3406-.2408-.4718-.5324-.3034z" fill="#e4e8f4" data-original="#e4e8f4" style="" class=""/></g></g><g><g><path d="m97.9608 74.0115c-.2916.1684-.5299.5755-.5289.9161.0009.3351.2407.4717.5323.3034l11.4304-6.5993c.2916-.1684.5298-.581.5289-.9161-.001-.3406-.2408-.4718-.5324-.3034z" fill="#e4e8f4" data-original="#e4e8f4" style="" class=""/></g></g><g><g><path d="m97.9457 68.3051c-.2916.1684-.5299.5755-.5289.9161.001.3351.2407.4717.5324.3034l11.4304-6.5994c.2916-.1684.5298-.581.5289-.9161-.001-.3406-.2408-.4718-.5324-.3034z" fill="#e4e8f4" data-original="#e4e8f4" style="" class=""/></g></g><g><g><path d="m99.805 61.6926c-.0526.0304-.1003.1074-.1001.1733l.0032 1.1151c.0002.0659.0482.0932.1007.0629l.9752-.5631c.0574-.0331.1003-.1129.1001-.1788l-.0032-1.1151c-.0002-.0659-.0434-.0905-.1007-.0574z" fill="#9ad898" data-original="#9ad898" style="" class=""/></g></g><g><g><path d="m97.9381 65.452c-.2916.1684-.5299.5755-.5289.9161.001.3351.2407.4717.5324.3034l11.4304-6.5994c.2916-.1684.5298-.581.5289-.9161-.001-.3406-.2408-.4718-.5324-.3034z" fill="#e4e8f4" data-original="#e4e8f4" style="" class=""/></g></g><g><g><path d="m108.7383 54.2846c-.0526.0304-.1003.1074-.1001.1733l.0032 1.1151c.0002.0659.0481.0878.1007.0574l.9752-.5631c.0574-.0331.1002-.1074.1-.1733l-.0032-1.1152c-.0002-.0659-.0434-.0905-.1007-.0574z" fill="#9ad898" data-original="#9ad898" style="" class=""/></g></g><g><g><path d="m106.5058 55.5735c-.0574.0331-.1003.1074-.1001.1733l.0032 1.1151c.0002.0659.0434.0905.1007.0574l.9704-.5603c.0574-.0331.105-.1102.1048-.1761l-.0032-1.1152c-.0002-.0659-.0481-.0877-.1055-.0546z" fill="#9ad898" data-original="#9ad898" style="" class=""/></g></g><g><g><path d="m104.2685 56.8652c-.0526.0304-.1002.1074-.1.1733l.0032 1.1152c.0002.0659.0481.0878.1007.0574l.9752-.5631c.0574-.0331.1003-.1074.1001-.1733l-.0032-1.1151c-.0002-.0659-.0434-.0905-.1007-.0574z" fill="#9ad898" data-original="#9ad898" style="" class=""/></g></g><g><g><path d="m102.0359 58.1542c-.0574.0331-.1002.1074-.1.1733l.0032 1.1152c.0002.0659.0434.0905.1007.0574l.9705-.5603c.0574-.0331.1003-.1074.1001-.1733l-.0032-1.1152c-.0002-.0659-.0434-.0905-.1007-.0574z" fill="#9ad898" data-original="#9ad898" style="" class=""/></g></g><g><g><path d="m99.7986 59.4459c-.0526.0304-.1003.1074-.1001.1733l.0032 1.1152c.0002.0659.0481.0878.1007.0574l.9752-.5631c.0574-.0331.1003-.1074.1001-.1733l-.0032-1.1152c-.0002-.0659-.0434-.0905-.1007-.0574z" fill="#9ad898" data-original="#9ad898" style="" class=""/></g></g><g><g><path d="m97.5661 60.7349c-.0574.0331-.1003.1074-.1001.1733l.0032 1.1152c.0002.0659.0434.0905.1007.0574l.9705-.5603c.0574-.0331.1002-.1074.1-.1733l-.0032-1.1152c-.0002-.0659-.0434-.0905-.1007-.0574z" fill="#9ad898" data-original="#9ad898" style="" class=""/></g></g><g><g><path d="m108.7447 56.5313c-.0526.0304-.1003.1074-.1001.1733l.0032 1.1152c.0002.0659.0482.0932.1007.0629l.9752-.5631c.0574-.0331.1002-.1129.1-.1788l-.0032-1.1151c-.0002-.0659-.0434-.0905-.1007-.0574z" fill="#9ad898" data-original="#9ad898" style="" class=""/></g></g><g><g><path d="m106.5122 57.8202c-.0574.0331-.1003.1074-.1001.1733l.0032 1.1152c.0002.0659.0434.096.1007.0629l.9704-.5603c.0574-.0331.105-.1157.1048-.1816l-.0032-1.1151c-.0002-.0659-.0481-.0878-.1055-.0547z" fill="#9ad898" data-original="#9ad898" style="" class=""/></g></g><g><g><path d="m104.2748 59.112c-.0526.0304-.1002.1074-.1.1733l.0032 1.1151c.0002.0659.0481.0933.1007.0629l.9752-.5631c.0574-.0331.1003-.1129.1001-.1788l-.0032-1.1152c-.0002-.0659-.0434-.0905-.1007-.0574z" fill="#9ad898" data-original="#9ad898" style="" class=""/></g></g><g><g><path d="m102.0423 60.4009c-.0574.0331-.1002.1074-.1001.1733l.0032 1.1151c.0002.0659.0434.096.1007.0629l.9705-.5603c.0574-.0331.1003-.1129.1001-.1788l-.0032-1.1151c-.0002-.0659-.0434-.0905-.1007-.0574z" fill="#9ad898" data-original="#9ad898" style="" class=""/></g></g><g><g><path d="m97.5725 62.9816c-.0574.0331-.1003.1074-.1001.1733l.0032 1.1151c.0002.0659.0434.096.1007.0629l.9705-.5603c.0574-.0331.1002-.1129.1-.1788l-.0032-1.1152c-.0002-.0659-.0434-.0905-.1007-.0574z" fill="#9ad898" data-original="#9ad898" style="" class=""/></g></g></g></g><g><g><g><path d="m46.1821 63.175.1193 36.3544c0 .2088.1392.4175.4076.5766l17.5758 10.2094c.5467.3181 1.4216.3181 1.9683.01l17.705-10.2194c.2684-.1591.4076-.3678.4076-.5766l-.1193-36.3544c0 .2088-.1292.4076-.4076.5666l-17.705 10.2194c-.5467.3181-1.4216.3181-1.9683 0l-17.5758-10.2194c-.2684-.1591-.4076-.3579-.4076-.5666z" fill="#cad0dd" data-original="#cad0dd" style="" class=""/></g></g><g><g><path d="m46.59 62.6044c-.5459.3152-.5424.8245-.0001 1.1397l17.5805 10.2167c.5423.3152 1.4217.3189 1.9675.0037l17.7018-10.2201c.5459-.3152.5424-.8245.0001-1.1397l-17.5805-10.2168c-.5423-.3151-1.4216-.3188-1.9675-.0037z" fill="#e4e8f4" data-original="#e4e8f4" style="" class=""/></g></g><g><g><path d="m81.2371 98.1924c.5316-.307.9509-1.0333.9509-1.6398l-.0824-29.1268c0-.0075 0-.0075 0-.015.4642-.1947.8161.0599.8236.614l.0824 29.1268c0 .6065-.4193 1.3328-.9509 1.6398l-12.8338 7.4128c-.5241.2995-.9435.0599-.9509-.5316.0449-.0224.0824-.0449.1273-.0674z" fill="#37617b" data-original="#37617b" style="" class=""/></g><g><path d="m69.1371 74.8835 12.8412-7.4053c.0449-.0224.0824-.0449.1273-.0674v.015l.0824 29.1268c0 .6065-.4193 1.3328-.9509 1.6398l-12.8338 7.4128c-.0449.0224-.0824.0449-.1273.0674v-.0075l-.0824-29.1343c-.0074-.6065.4194-1.3403.9435-1.6473z" fill="#4c7891" data-original="#4c7891" style="" class=""/></g></g><g><g><g><path d="m69.489 87.6636c-.2916.1684-.5299.5755-.5289.9161.001.3351.2407.4717.5324.3034l11.4304-6.5994c.2916-.1683.5298-.581.5289-.9161-.001-.3406-.2408-.4718-.5324-.3034z" fill="#fed57a" data-original="#fed57a" style="" class=""/></g></g><g><g><path d="m69.5118 96.2231c-.2916.1684-.5299.5755-.5289.9161.0009.3351.2407.4717.5323.3034l11.4304-6.5993c.2916-.1684.5298-.581.5289-.9161-.001-.3406-.2408-.4718-.5324-.3034z" fill="#fed57a" data-original="#fed57a" style="" class=""/></g></g><g><g><path d="m69.5194 99.0763c-.2916.1684-.5299.5756-.5289.9161.0009.3351.2407.4718.5323.3034l11.4304-6.5993c.2916-.1684.5298-.581.5289-.9161-.001-.3406-.2408-.4718-.5324-.3034z" fill="#fed57a" data-original="#fed57a" style="" class=""/></g></g><g><g><path d="m69.527 101.9294c-.2916.1684-.5299.5756-.5289.9161.0009.3351.2407.4718.5324.3034l11.4304-6.5993c.2916-.1684.5298-.581.5289-.9161-.001-.3406-.2408-.4718-.5323-.3034z" fill="#fed57a" data-original="#fed57a" style="" class=""/></g></g><g><g><path d="m69.5042 93.3699c-.2916.1684-.5299.5755-.5289.9161.0009.3351.2407.4717.5323.3034l11.4304-6.5993c.2916-.1684.5299-.581.5289-.9161-.001-.3406-.2408-.4718-.5324-.3034z" fill="#fed57a" data-original="#fed57a" style="" class=""/></g></g><g><g><path d="m69.4966 90.5168c-.2916.1684-.5299.5755-.5289.9161.001.3351.2407.4717.5324.3034l11.4304-6.5994c.2916-.1684.5298-.581.5289-.9161-.001-.3406-.2408-.4718-.5324-.3034z" fill="#fed57a" data-original="#fed57a" style="" class=""/></g></g><g><g><path d="m69.4815 84.8104c-.2916.1684-.5299.5755-.5289.9161.001.3351.2407.4717.5324.3034l11.4304-6.5993c.2916-.1684.5298-.581.5289-.9161-.001-.3406-.2408-.4718-.5324-.3034z" fill="#fed57a" data-original="#fed57a" style="" class=""/></g></g><g><g><path d="m71.3408 78.1979c-.0526.0304-.1003.1074-.1001.1733l.0032 1.1151c.0002.0659.0482.0932.1007.0629l.9752-.563c.0574-.0331.1003-.1129.1001-.1788l-.0032-1.1151c-.0002-.0659-.0434-.0905-.1007-.0574z" fill="#ffffff" data-original="#ffffff" style="" class=""/></g></g><g><g><path d="m69.4739 81.9573c-.2916.1684-.5299.5755-.5289.9161.001.3351.2407.4717.5324.3034l11.4304-6.5993c.2916-.1684.5298-.581.5289-.9161-.001-.3406-.2408-.4718-.5324-.3034z" fill="#fed57a" data-original="#fed57a" style="" class=""/></g></g><g><g><path d="m80.2741 70.7472c-.0526.0304-.1003.1074-.1001.1733l.0032 1.1151c.0002.0659.0481.0878.1007.0574l.9752-.5631c.0574-.0331.1002-.1074.1-.1733l-.0032-1.1152c-.0002-.0659-.0434-.0905-.1007-.0574z" fill="#ffffff" data-original="#ffffff" style="" class=""/></g></g><g><g><path d="m78.0416 72.0361c-.0574.0331-.1003.1074-.1001.1733l.0032 1.1151c.0002.0659.0434.0905.1007.0574l.9704-.5603c.0574-.0331.105-.1102.1048-.1761l-.0032-1.1152c-.0002-.0659-.0481-.0877-.1055-.0546z" fill="#ffffff" data-original="#ffffff" style="" class=""/></g></g><g><g><path d="m75.8043 73.3279c-.0526.0304-.1002.1074-.1.1733l.0032 1.1152c.0002.0659.0481.0878.1007.0574l.9752-.5631c.0574-.0331.1003-.1074.1001-.1733l-.0032-1.1151c-.0002-.0659-.0434-.0905-.1007-.0574z" fill="#ffffff" data-original="#ffffff" style="" class=""/></g></g><g><g><path d="m73.5717 74.6168c-.0574.0331-.1002.1074-.1001.1733l.0032 1.1152c.0002.0659.0434.0905.1007.0574l.9705-.5603c.0574-.0331.1003-.1074.1001-.1733l-.0032-1.1152c-.0002-.0659-.0434-.0905-.1007-.0574z" fill="#ffffff" data-original="#ffffff" style="" class=""/></g></g><g><g><path d="m71.3344 75.9512c-.0526.0304-.1003.1074-.1001.1733l.0032 1.1152c.0002.0659.0481.0878.1007.0574l.9752-.5631c.0574-.0331.1003-.1074.1001-.1733l-.0032-1.1152c-.0002-.0659-.0434-.0905-.1007-.0574z" fill="#ffffff" data-original="#ffffff" style="" class=""/></g></g><g><g><path d="m69.1019 77.2402c-.0574.0331-.1003.1074-.1001.1733l.0032 1.1152c.0002.0659.0434.0905.1007.0574l.9705-.5603c.0574-.0331.1002-.1074.1-.1733l-.0032-1.1152c-.0002-.0659-.0434-.0905-.1007-.0574z" fill="#ffffff" data-original="#ffffff" style="" class=""/></g></g><g><g><path d="m80.2805 73.0366c-.0526.0304-.1003.1074-.1001.1733l.0032 1.1152c.0002.0659.0482.0932.1007.0629l.9752-.563c.0574-.0331.1002-.1129.1-.2215l-.0032-1.1152c-.0002-.0232-.0434-.0479-.1007-.0147z" fill="#ffffff" data-original="#ffffff" style="" class=""/></g></g><g><g><path d="m78.048 74.2829c-.0574.0331-.1003.1074-.1001.1733l.0032 1.1152c.0002.0659.0434.096.1007.0629l.9704-.5603c.0574-.0331.105-.1157.1048-.1816l-.0032-1.1152c-.0002-.0659-.0481-.0878-.1055-.0547z" fill="#ffffff" data-original="#ffffff" style="" class=""/></g></g><g><g><path d="m75.8106 75.5746c-.0526.0304-.1002.1074-.1001.1733l.0032 1.1152c.0002.0659.0481.0933.1007.0629l.9752-.563c.0574-.0331.1003-.1129.1001-.1788l-.0032-1.1152c-.0002-.0659-.0434-.0905-.1007-.0574z" fill="#ffffff" data-original="#ffffff" style="" class=""/></g></g><g><g><path d="m73.5781 76.8635c-.0574.0331-.1002.1074-.1001.1733l.0032 1.1152c.0002.0659.0434.096.1007.0629l.9705-.5603c.0574-.0331.1003-.1129.1001-.1788l-.0032-1.1152c-.0002-.0659-.0434-.0905-.1007-.0574z" fill="#ffffff" data-original="#ffffff" style="" class=""/></g></g><g><g><path d="m69.1082 79.4869c-.0574.0331-.1003.1074-.1001.1733l.0032 1.1151c.0002.0659.0434.096.1007.0629l.9705-.5603c.0574-.0331.1002-.1129.1-.1788l-.0032-1.1152c-.0002-.0659-.0434-.0905-.1007-.0574z" fill="#ffffff" data-original="#ffffff" style="" class=""/></g></g></g></g><g><g><g><path d="m17.7179 79.6803.1193 36.3544c0 .2088.1392.4175.4076.5766l17.5758 10.2094c.5467.3181 1.4216.3181 1.9683.0099l17.705-10.2194c.2684-.1591.4076-.3678.4076-.5766l-.1194-36.3544c0 .2088-.1292.4076-.4076.5667l-17.705 10.2194c-.5467.3181-1.4216.3181-1.9683 0l-17.5757-10.2194c-.2684-.1591-.4076-.3579-.4076-.5666z" fill="#d4dae8" data-original="#d4dae8" style="" class=""/></g></g><g><g><path d="m18.1258 79.1097c-.5459.3152-.5424.8245-.0001 1.1397l17.5804 10.2166c.5423.3152 1.4217.3188 1.9675.0037l17.7018-10.2201c.5459-.3152.5424-.8245.0001-1.1397l-17.5804-10.2167c-.5423-.3151-1.4216-.3188-1.9675-.0037z" fill="#e4e8f4" data-original="#e4e8f4" style="" class=""/></g></g><g><g><path d="m52.7729 114.6977c.5316-.307.9509-1.0333.9509-1.6398l-.0824-29.1268c0-.0075 0-.0075 0-.015.4642-.1947.8161.0599.8236.614l.0824 29.1268c0 .6065-.4193 1.3328-.9509 1.6398l-12.8338 7.4128c-.5241.2995-.9434.0599-.9509-.5316.0449-.0224.0824-.0449.1273-.0674z" fill="#525566" data-original="#525566" style=""/></g><g><path d="m40.6729 91.3888 12.8412-7.4053c.0449-.0224.0824-.0449.1273-.0674v.015l.0824 29.1268c0 .6065-.4193 1.3328-.9509 1.6398l-12.8338 7.4128c-.0449.0224-.0824.0449-.1273.0674v-.0075l-.0823-29.1344c-.0075-.6064.4193-1.3402.9434-1.6472z" fill="#5b5e71" data-original="#5b5e71" style="" class=""/></g></g><g><g><g><path d="m41.0248 104.1689c-.2916.1684-.5299.5755-.5289.9161.0009.3351.2407.4717.5324.3034l11.4304-6.5993c.2916-.1684.5299-.581.5289-.9161-.001-.3406-.2408-.4718-.5324-.3034z" fill="#748bfd" data-original="#748bfd" style="" class=""/></g></g><g><g><path d="m41.0476 112.7284c-.2916.1684-.5299.5755-.5289.9161.0009.3351.2407.4717.5324.3034l11.4304-6.5994c.2916-.1684.5298-.581.5289-.9161-.001-.3406-.2408-.4718-.5324-.3034z" fill="#748bfd" data-original="#748bfd" style="" class=""/></g></g><g><g><path d="m41.0552 115.5816c-.2916.1684-.5299.5755-.5289.9161.0009.3351.2407.4718.5324.3034l11.4304-6.5993c.2916-.1684.5298-.581.5289-.9161-.001-.3406-.2408-.4718-.5324-.3034z" fill="#748bfd" data-original="#748bfd" style="" class=""/></g></g><g><g><path d="m41.0627 118.4347c-.2916.1684-.5299.5756-.5289.9161.0009.3351.2407.4718.5324.3034l11.4304-6.5993c.2916-.1684.5298-.581.5289-.9161-.001-.3406-.2408-.4718-.5324-.3034z" fill="#748bfd" data-original="#748bfd" style="" class=""/></g></g><g><g><path d="m41.04 109.8752c-.2916.1684-.5299.5756-.5289.9161.0009.3351.2407.4717.5324.3034l11.4304-6.5994c.2916-.1684.5298-.581.5289-.9161-.001-.3406-.2408-.4718-.5324-.3034z" fill="#748bfd" data-original="#748bfd" style="" class=""/></g></g><g><g><path d="m41.0324 107.0221c-.2916.1684-.5299.5755-.5289.9161.0009.3351.2407.4717.5324.3034l11.4304-6.5993c.2916-.1684.5298-.581.5289-.9161-.001-.3406-.2408-.4718-.5324-.3034z" fill="#748bfd" data-original="#748bfd" style="" class=""/></g></g><g><g><path d="m41.0172 101.3157c-.2916.1684-.5299.5755-.5289.9161.0009.3351.2407.4717.5324.3034l11.4304-6.5993c.2916-.1684.5298-.581.5289-.9161-.001-.3406-.2408-.4718-.5324-.3034z" fill="#748bfd" data-original="#748bfd" style="" class=""/></g></g><g><g><path d="m42.8766 94.7032c-.0526.0304-.1003.1074-.1001.1733l.0032 1.1152c.0002.0659.0482.0932.1007.0629l.9752-.5631c.0574-.0331.1003-.1129.1001-.1788l-.0032-1.1152c-.0002-.0659-.0434-.0905-.1007-.0574z" fill="#f9607f" data-original="#f9607f" style=""/></g></g><g><g><path d="m41.0097 98.4626c-.2916.1684-.5299.5755-.5289.9161.0009.3351.2407.4717.5324.3034l11.4304-6.5993c.2916-.1684.5298-.581.5289-.9161-.001-.3406-.2408-.4718-.5324-.3034z" fill="#748bfd" data-original="#748bfd" style="" class=""/></g></g><g><g><path d="m51.8099 87.2952c-.0526.0304-.1003.1074-.1001.1733l.0032 1.1152c.0002.0659.0481.0878.1007.0574l.9752-.5631c.0574-.0331.1002-.1074.1-.1733l-.0032-1.1151c-.0002-.0659-.0434-.0905-.1007-.0574z" fill="#f9607f" data-original="#f9607f" style=""/></g></g><g><g><path d="m49.5774 88.5841c-.0574.0331-.1003.1074-.1001.1733l.0032 1.1152c.0002.0659.0434.0905.1007.0574l.9704-.5603c.0574-.0331.105-.1102.1048-.1761l-.0032-1.1151c-.0002-.0659-.0481-.0877-.1055-.0546z" fill="#f9607f" data-original="#f9607f" style=""/></g></g><g><g><path d="m47.34 89.8758c-.0526.0304-.1002.1074-.1.1733l.0032 1.1152c.0002.0659.0481.0878.1007.0574l.9752-.563c.0574-.0331.1003-.1074.1001-.1733l-.0032-1.1152c-.0002-.0659-.0433-.0905-.1007-.0574z" fill="#f9607f" data-original="#f9607f" style=""/></g></g><g><g><path d="m45.1075 91.1648c-.0574.0331-.1002.1074-.1.1733l.0032 1.1152c.0002.0659.0434.0905.1007.0574l.9705-.5603c.0574-.0331.1003-.1074.1001-.1733l-.0032-1.1152c-.0002-.0659-.0434-.0905-.1007-.0574z" fill="#f9607f" data-original="#f9607f" style=""/></g></g><g><g><path d="m42.8702 92.4565c-.0526.0304-.1003.1074-.1001.1733l.0032 1.1152c.0002.0659.0481.0878.1007.0574l.9752-.5631c.0574-.0331.1003-.1074.1001-.1733l-.0032-1.1152c-.0002-.0659-.0434-.0905-.1007-.0574z" fill="#f9607f" data-original="#f9607f" style=""/></g></g><g><g><path d="m40.6377 93.7455c-.0574.0331-.1003.1074-.1001.1733l.0032 1.1152c.0002.0659.0434.0905.1007.0574l.9705-.5603c.0574-.0331.1002-.1074.1-.1733l-.0032-1.1152c-.0002-.0659-.0433-.0905-.1007-.0574z" fill="#f9607f" data-original="#f9607f" style=""/></g></g><g><g><path d="m51.8163 89.5419c-.0526.0304-.1003.1074-.1001.1733l.0032 1.1152c.0002.0659.0482.0932.1007.0629l.9752-.5631c.0574-.0331.1002-.1129.1-.1788l-.0032-1.1152c-.0002-.0659-.0434-.0905-.1007-.0574z" fill="#f9607f" data-original="#f9607f" style=""/></g></g><g><g><path d="m49.5837 90.8308c-.0574.0331-.1003.1074-.1001.1733l.0032 1.1152c.0002.0659.0434.096.1007.0629l.9704-.5603c.0574-.0331.105-.1157.1048-.1816l-.0032-1.1152c-.0002-.0659-.0481-.0878-.1055-.0546z" fill="#f9607f" data-original="#f9607f" style=""/></g></g><g><g><path d="m47.3464 92.1226c-.0526.0304-.1002.1074-.1.1733l.0032 1.1152c.0002.0659.0481.0933.1007.0629l.9752-.5631c.0574-.0331.1003-.1129.1001-.1788l-.0032-1.1152c-.0002-.0659-.0434-.0905-.1007-.0574z" fill="#f9607f" data-original="#f9607f" style=""/></g></g><g><g><path d="m45.1139 93.4115c-.0574.0331-.1002.1074-.1.1733l.0031 1.1152c.0002.0659.0434.096.1007.0629l.9705-.5603c.0574-.0331.1003-.1129.1001-.1788l-.0032-1.1152c-.0002-.0659-.0434-.0905-.1007-.0574z" fill="#f9607f" data-original="#f9607f" style=""/></g></g><g><g><path d="m40.644 95.9922c-.0574.0331-.1003.1074-.1001.1733l.0032 1.1152c.0002.0659.0434.096.1007.0629l.9705-.5603c.0574-.0331.1002-.1129.1-.1788l-.0032-1.1152c-.0002-.0659-.0434-.0905-.1007-.0574z" fill="#f9607f" data-original="#f9607f" style=""/></g></g></g></g></g><g><g><path d="m71.2714 8.1945 6.4214 3.7052c-1.7176-.9982-4.051-.9509-6.6495.3532l-6.4215-3.7051c2.5985-1.3042 4.9319-1.3515 6.6496-.3533z" fill="#576cfb" data-original="#576cfb" style="" class=""/></g><g><path d="m62.2888 5.4096 6.4214 3.7051c-1.5829-.9199-3.7214-.8635-6.0723.2818l-6.4215-3.7051c2.351-1.1454 4.4895-1.2017 6.0724-.2818z" fill="#4562ef" data-original="#4562ef" style="" class=""/></g><g><path d="m53.8411 2.4594 6.4214 3.7052c-1.7483-1.0161-4.1649-.836-6.807.6894-4.1185 2.3778-7.7882 7.6679-9.0359 12.8922l-6.4215-3.7051c1.2477-5.2244 4.9174-10.5145 9.0359-12.8923 2.6422-1.5254 5.0587-1.7054 6.8071-.6894z" fill="#576cfb" data-original="#576cfb" style="" class=""/></g><g><path d="m29.4269 56.2391-6.4215-3.7051c-1.8318-1.0645-2.9702-3.3316-2.9793-6.5486-.0144-5.0693 2.8016-11.1654 6.9304-15.1011l6.4214 3.7052c-4.1287 3.9357-6.9447 10.0318-6.9304 15.1011.0091 3.2169 1.1476 5.484 2.9794 6.5485z" fill="#576cfb" data-original="#576cfb" style="" class=""/></g><g><path d="m67.5864 8.6745 2.0628 1.1952c-.5783-.5976-1.2723-1.0024-2.0628-1.1952z" fill="#e4e8f4" data-original="#e4e8f4" style="" class=""/></g><g><path d="m33.3779 34.5894-6.4215-3.7051c.9093-5.5013 4.8121-11.4489 9.2677-14.0213.601-.347 1.1874-.618 1.7741-.8219l6.4214 3.7052c-.5867.2038-1.1731.4749-1.7741.8218-4.4555 2.5724-8.3583 8.52-9.2676 14.0213z" fill="#4562ef" data-original="#4562ef" style="" class=""/></g><g><path d="m80.6605 18.3942c.0186 6.4501-4.5421 14.3429-10.1638 17.5912l-33.8888 19.5645c-5.5845 3.2204-10.1452.5864-10.1638-5.8637-.0093-5.0633 2.8016-11.1597 6.9341-15.0969.9121-5.5007 4.812-11.4483 9.2703-14.0172.5957-.3536 1.1821-.6236 1.7685-.8283 1.2472-5.2216 4.9237-10.5083 9.0376-12.891 4.2814-2.4665 7.9673-1.4147 9.1865 2.541 3.9278-1.9081 7.2599-.7819 8.4047 2.8574 5.3612-2.6899 9.5961-.0279 9.6147 6.143z" fill="#748bfd" data-original="#748bfd" style="" class=""/></g><g><path d="m61.3413 11.8877.0242.0726.0727-.0483c-.0484.0242-.0727 0-.0969-.0243z" fill="#e4e8f4" data-original="#e4e8f4" style="" class=""/></g></g><g><g enable-background="new"><g><g><g><path d="m106.379 44.7845v1.7258l-12.2775 7.1349v-1.7258z" fill="#bac1ce" data-original="#bac1ce" style="" class=""/></g></g></g><g><g><g><path d="m94.1015 51.9194v1.7258l-12.3679-7.1406v-1.7258z" fill="#cad0dd" data-original="#cad0dd" style="" class=""/></g></g></g><g><g><g><path d="m106.379 44.7845-12.2775 7.1349-12.3679-7.1406 12.2775-7.1349z" fill="#d4dae8" data-original="#d4dae8" style="" class=""/></g></g></g></g><g><g><g><path d="m89.4705 42.614c2.5259-1.4544 6.2001-1.4544 8.6879 0 .0764.0383.153.0764.1913.1147 1.0715.6125 1.6457 1.3778 1.7223 2.1816.153-.9568-.4212-1.9519-1.7223-2.6791-.0383-.0383-.1149-.1147-.1913-.153-2.4878-1.4161-6.162-1.4544-8.6879 0-1.3394.7272-1.9136 1.7223-1.7606 2.7174.0766-.8038.6507-1.5693 1.7606-2.1816z" fill="#bac1ce" data-original="#bac1ce" style="" class=""/></g></g><g><g><path d="m98.3497 42.7287c-.0383-.0383-.1149-.0764-.1913-.1147-2.4878-1.4544-6.162-1.4544-8.6879 0-1.1098.6123-1.684 1.3778-1.7606 2.1816.0766.8036.6508 1.6074 1.684 2.2579 2.4878 1.4544 6.3151 1.4927 8.8026.1913 1.1484-.6889 1.7989-1.4925 1.8755-2.3346-.0766-.8037-.6508-1.569-1.7223-2.1815z" fill="#294e60" data-original="#294e60" style="" class=""/></g></g></g><g><g><g><path d="m94.5157 44.3999c-.3716-.2145-.922-.2173-1.296.0002-.369.1965-.3516.5268-.0114.7412.3712.2143.9417.2232 1.3107.0268.3688-.2145.3824-.5447.0266-.7502-.0097-.0062-.0199-.0122-.0299-.018z" fill="#d4dae8" data-original="#d4dae8" style="" class=""/></g></g><g><g><path d="m98.212 44.4646c-.0678-.0391-.1451-.0752-.2322-.1074-.7235-.2627-1.5301-.3792-2.3688-.2627l-.3197-.107c.8883-.3014 1.828-.3986 2.8694-.3208l-.0341-.0779-.0507-.0681c-.2194-.2592-.5093-.4867-.8535-.6854-.1594-.092-.3305-.1779-.5119-.2579-.3871-.1655-.8574-.2238-1.31-.0974-.8048.214-1.3904.5739-1.6897 1.0797l-.3521.107.0326-.1557c.0309-.4862.3138-.9433.7985-1.3422l.0833-.107-.1848-.0291c-.7052-.0194-1.4102.0389-2.0474.1946-.486.1263-.8207.3403-.8524.6515-.0644.5058.1733.9725.78 1.3615l.0178.2042-.0839-.0096-.1009-.0389c-.2788-.1026-.5291-.219-.7526-.3479-.3701-.2138-.667-.4623-.899-.7413l-.1181-.107-.1507.0874c-.4008.3501-.6339.7198-.7154 1.138-.0426.2457.0552.4695.3484.6387.0433.025.0905.0487.1424.0713.7405.3112 1.5638.4182 2.4699.3208l.3197.107-.1677.0585c-.7709.2333-1.5931.3208-2.4664.282l-.1846.0096.0341.1168c.2179.2507.4958.4665.8277.658.1316.0759.2716.1481.4197.2172.4547.2238.9755.3112 1.5287.1459.7544-.2238 1.323-.5739 1.589-1.0601l.3186-.107.0172.0681c-.0139.5154-.2966.9921-.7981 1.42l-.0831.1263.1848.0291c.722.0098 1.41-.0583 2.0639-.2235.4862-.1072.7872-.321.8359-.6226.0474-.5154-.1735-.9918-.797-1.3713l-.0011-.2138.1851.0681c.2838.1029.5419.2209.7731.3545.3584.2068.6524.451.8783.7346l.1181.0876.1674-.0779c.3843-.3403.6172-.7294.6989-1.128.0397-.2617-.0769-.4975-.3766-.6705zm-3.2484.9429c-.6193.3403-1.5596.3403-2.1829-.0196-.5895-.3403-.5926-.9044.01-1.235.6024-.3501 1.5592-.3599 2.1657-.0098.6065.3502.6096.9142.0072 1.2644z" fill="#d4dae8" data-original="#d4dae8" style="" class=""/></g></g></g></g><g><g enable-background="new"><g><g><g><path d="m77.5376 61.9015v1.7259l-12.2775 7.1349v-1.7259z" fill="#bac1ce" data-original="#bac1ce" style="" class=""/></g></g></g><g><g><g><path d="m65.2601 69.0364v1.7259l-12.368-7.1407v-1.7258z" fill="#cad0dd" data-original="#cad0dd" style="" class=""/></g></g></g><g><g><g><path d="m77.5376 61.9015-12.2775 7.1349-12.368-7.1406 12.2775-7.1349z" fill="#d4dae8" data-original="#d4dae8" style="" class=""/></g></g></g></g><g><g><g><path d="m60.629 59.731c2.5259-1.4544 6.2001-1.4544 8.6879 0 .0764.0383.153.0764.1913.1147 1.0715.6125 1.6457 1.3778 1.7223 2.1816.153-.9568-.4212-1.9519-1.7223-2.6791-.0383-.0383-.1149-.1147-.1913-.153-2.4878-1.4161-6.162-1.4544-8.6879 0-1.3394.7272-1.9136 1.7223-1.7606 2.7174.0766-.8038.6508-1.5693 1.7606-2.1816z" fill="#bac1ce" data-original="#bac1ce" style="" class=""/></g></g><g><g><path d="m69.5083 59.8457c-.0383-.0383-.1149-.0764-.1913-.1147-2.4878-1.4544-6.162-1.4544-8.6879 0-1.1098.6123-1.684 1.3778-1.7606 2.1816.0766.8036.6508 1.6074 1.684 2.2579 2.4878 1.4544 6.3151 1.4927 8.8026.1913 1.1484-.6889 1.7989-1.4924 1.8755-2.3346-.0766-.8037-.6508-1.569-1.7223-2.1815z" fill="#294e60" data-original="#294e60" style="" class=""/></g></g></g><g><g><g><path d="m65.6743 61.517c-.3716-.2145-.922-.2173-1.296.0002-.369.1965-.3517.5268-.0114.7412.3712.2143.9417.2233 1.3107.0268.3688-.2145.3824-.5447.0266-.7502-.0097-.0063-.0199-.0123-.0299-.018z" fill="#d4dae8" data-original="#d4dae8" style="" class=""/></g></g><g><g><path d="m69.3706 61.5816c-.0678-.0391-.145-.0752-.2322-.1074-.7235-.2627-1.5301-.3792-2.3688-.2627l-.3197-.107c.8883-.3014 1.828-.3986 2.8694-.3208l-.0341-.0779-.0507-.0681c-.2194-.2592-.5093-.4867-.8535-.6854-.1594-.092-.3305-.1779-.5119-.2579-.3871-.1655-.8574-.2238-1.31-.0974-.8048.214-1.3904.5739-1.6897 1.0797l-.3521.107.0327-.1557c.0309-.4862.3138-.9433.7985-1.3422l.0833-.107-.1848-.0291c-.7052-.0194-1.4102.0389-2.0474.1946-.486.1263-.8207.3403-.8524.6515-.0644.5058.1733.9725.78 1.3615l.0178.2042-.084-.0095-.1009-.0389c-.2788-.1026-.5291-.219-.7526-.3479-.3701-.2138-.667-.4623-.899-.7413l-.1181-.107-.1507.0874c-.4008.3501-.6339.7198-.7154 1.138-.0426.2457.0552.4695.3484.6387.0433.025.0905.0487.1424.0713.7405.3112 1.5638.4182 2.4699.3208l.3197.107-.1677.0585c-.7709.2333-1.5931.3208-2.4664.282l-.1846.0096.0341.1168c.2179.2507.4958.4665.8277.658.1316.0759.2716.1481.4197.2172.4547.2238.9755.3112 1.5287.1459.7544-.2238 1.323-.5739 1.589-1.0601l.3186-.107.0172.0681c-.0139.5154-.2966.9921-.7981 1.42l-.0831.1263.1848.0291c.722.0098 1.41-.0583 2.0639-.2235.4862-.1072.7872-.321.8359-.6226.0474-.5154-.1735-.9918-.797-1.3713l-.0011-.2138.1851.0681c.2838.1029.5419.2209.7731.3545.3584.2068.6524.451.8783.7346l.1181.0876.1674-.0779c.3842-.3403.6171-.7294.6989-1.128.0396-.2618-.0769-.4975-.3766-.6706zm-3.2484.9429c-.6193.3403-1.5596.3403-2.1829-.0196-.5895-.3403-.5926-.9044.01-1.235.6024-.3501 1.5592-.3599 2.1657-.0098.6065.3502.6096.9143.0072 1.2644z" fill="#d4dae8" data-original="#d4dae8" style="" class=""/></g></g></g></g><g><g enable-background="new"><g><g><g><path d="m48.6961 79.0185v1.7259l-12.2775 7.1349v-1.7259z" fill="#bac1ce" data-original="#bac1ce" style="" class=""/></g></g></g><g><g><g><path d="m36.4186 86.1534v1.7259l-12.3679-7.1407v-1.7258z" fill="#cad0dd" data-original="#cad0dd" style="" class=""/></g></g></g><g><g><g><path d="m48.6961 79.0185-12.2775 7.1349-12.3679-7.1406 12.2775-7.1349z" fill="#d4dae8" data-original="#d4dae8" style="" class=""/></g></g></g></g><g><g><g><path d="m31.7876 76.848c2.5259-1.4544 6.2001-1.4544 8.6879 0 .0764.0383.153.0764.1913.1147 1.0715.6125 1.6457 1.3778 1.7223 2.1816.153-.9568-.4212-1.9519-1.7223-2.6791-.0383-.0383-.1149-.1147-.1913-.153-2.4878-1.4161-6.162-1.4544-8.6879 0-1.3394.7272-1.9136 1.7223-1.7606 2.7174.0766-.8038.6508-1.5693 1.7606-2.1816z" fill="#bac1ce" data-original="#bac1ce" style="" class=""/></g></g><g><g><path d="m40.6669 76.9627c-.0383-.0383-.1149-.0764-.1913-.1147-2.4878-1.4544-6.162-1.4544-8.6879 0-1.1098.6123-1.684 1.3777-1.7606 2.1816.0766.8036.6508 1.6074 1.684 2.2579 2.4878 1.4544 6.3151 1.4927 8.8026.1913 1.1484-.6889 1.7989-1.4925 1.8755-2.3346-.0767-.8037-.6508-1.569-1.7223-2.1815z" fill="#294e60" data-original="#294e60" style="" class=""/></g></g></g><g><g><g><path d="m36.8329 78.634c-.3716-.2145-.922-.2173-1.296.0002-.369.1965-.3517.5268-.0114.7412.3712.2143.9417.2232 1.3107.0268.3688-.2145.3824-.5447.0266-.7502-.0098-.0063-.02-.0122-.0299-.018z" fill="#d4dae8" data-original="#d4dae8" style="" class=""/></g></g><g><g><path d="m40.5292 78.6986c-.0678-.0391-.145-.0752-.2322-.1074-.7235-.2627-1.53-.3792-2.3688-.2627l-.3197-.107c.8883-.3014 1.828-.3986 2.8694-.3208l-.0341-.0779-.0507-.0681c-.2194-.2592-.5093-.4867-.8535-.6854-.1594-.092-.3305-.1779-.5119-.2579-.3871-.1655-.8574-.2238-1.31-.0974-.8048.214-1.3904.5739-1.6897 1.0797l-.3521.107.0326-.1557c.0309-.4862.3138-.9433.7985-1.3422l.0833-.107-.1848-.0291c-.7052-.0194-1.4102.0389-2.0474.1946-.486.1263-.8207.3403-.8524.6515-.0644.5058.1733.9725.78 1.3615l.0178.2042-.0839-.0096-.1009-.0389c-.2788-.1026-.5291-.219-.7526-.3479-.3701-.2138-.6669-.4623-.899-.7413l-.1181-.107-.1507.0874c-.4008.3501-.6339.7198-.7154 1.138-.0426.2457.0552.4695.3484.6387.0433.025.0905.0487.1424.0713.7405.3112 1.5638.4182 2.4699.3208l.3197.107-.1677.0585c-.7709.2333-1.5931.3208-2.4664.282l-.1846.0096.0341.1168c.2179.2507.4958.4665.8277.658.1316.0759.2716.1481.4197.2172.4547.2238.9755.3112 1.5287.1459.7544-.2238 1.323-.5739 1.589-1.0601l.3186-.107.0172.0681c-.0139.5154-.2966.9921-.7981 1.42l-.0831.1264.1848.0291c.722.0098 1.41-.0583 2.0639-.2235.4862-.1072.7872-.321.8359-.6226.0474-.5154-.1735-.9918-.797-1.3713l-.0011-.2138.1851.0681c.2838.1029.5419.2209.7731.3545.3584.2068.6524.451.8783.7346l.1181.0876.1674-.0779c.3843-.3403.6172-.7294.6989-1.128.0396-.2618-.077-.4975-.3766-.6706zm-3.2484.9429c-.6193.3403-1.5596.3403-2.1829-.0196-.5895-.3403-.5926-.9044.01-1.235.6024-.3501 1.5592-.3599 2.1657-.0098.6065.3502.6095.9143.0072 1.2644z" fill="#d4dae8" data-original="#d4dae8" style="" class=""/></g></g></g></g><g><g><path d="m64.4039 23.8215-3.2831 2.119c-.1926.6599-.4559 1.3604-.7547 2.0207l1.9334 2.0942-2.6935 4.2576-2.6558-1.1692c-.3878.4271-.8464.8545-1.2874 1.2107l-.6418 4.4141-3.5669 1.7952-.2059-3.9856c-.4241.0823-.8485.1038-1.2553.0745l-2.9065 3.9742-2.3568-1.7279 2.2339-4.1751c-.2487-.405-.4445-.8609-.5697-1.3779l-3.2504 1.1858.2179-4.2506 3.0713-1.9562c.1745-.8119.4199-1.6038.7536-2.4264l-1.7029-1.8413 2.6758-4.2677 2.107.978c.6168-.7625 1.3045-1.444 1.9926-1.9835l.5031-3.4603 3.5669-1.7952.1327 3.1339c.6893-.1338 1.3436-.1457 1.9098.0149l2.3075-3.1813 2.3744 1.7177-1.9877 3.7078c.2667.4963.4275 1.0943.5532 1.7532l3.0031-1.0836zm-5.1267.5216c.1845-3.5202-2.0836-5.1773-5.0502-3.688-.1097.0558-.2185.115-.3268.1775-2.8415 1.6407-5.2166 5.5461-5.3944 8.9369-.1845 3.5203 2.0836 5.1773 5.0502 3.6881.1199-.0602.2388-.1245.3571-.1929 2.8281-1.6328 5.1871-5.5233 5.3641-8.9216" fill="#ffffff" data-original="#ffffff" style="" class=""/></g></g></g><g><g enable-background="new"><g><g><path d="m91.6473 114.7912-.0175 1.84-6.753 3.9244.0175-1.84z" fill="#efac41" data-original="#efac41" style="" class=""/></g></g><g><g><path d="m84.8943 118.7156-.0175 1.84-6.7918-3.9212.0175-1.84z" fill="#f9bb4a" data-original="#f9bb4a" style=""/></g></g><g><g><path d="m91.6473 114.7912-6.753 3.9244-6.7918-3.9212 6.753-3.9244z" fill="#fed57a" data-original="#fed57a" style="" class=""/></g></g></g></g><g><g enable-background="new"><g><g><path d="m15.745 104.5389-.0176 1.84-6.7529 3.9244.0175-1.84z" fill="#6eba6e" data-original="#6eba6e" style=""/></g></g><g><g><path d="m8.992 108.4633-.0175 1.84-6.7918-3.9212.0175-1.84z" fill="#75ca75" data-original="#75ca75" style=""/></g></g><g><g><path d="m15.745 104.5389-6.753 3.9244-6.7918-3.9212 6.753-3.9244z" fill="#9ad898" data-original="#9ad898" style="" class=""/></g></g></g></g><g><g enable-background="new"><g><g><path d="m129.8173 67.5463-.0175 1.84-6.753 3.9244.0176-1.84z" fill="#f34858" data-original="#f34858" style="" class=""/></g></g><g><g><path d="m123.0644 71.4707-.0176 1.84-6.7917-3.9212.0175-1.84z" fill="#fa5168" data-original="#fa5168" style=""/></g></g><g><g><path d="m129.8173 67.5463-6.7529 3.9244-6.7918-3.9212 6.753-3.9244z" fill="#f9607f" data-original="#f9607f" style=""/></g></g></g></g></g></g></g></g></svg>
